# xmcd CD database file
#
# Track frame offsets:
#	150
#	15610
#	34735
#	56377
#	70410
#	89645
#	103960
#	120850
#	146870
#	163305
#
# Disc length: 2400 seconds
#
# Revision: 2
# Processed by: cddbd v1.5.2PL0 Copyright (c) Steve Scherf et al.
# Submitted via: CDex 1.70beta1
#
DISCID=8d095e0a
DTITLE=矢沢永吉 - STAR IN HIBIYA,THE Disc 1
DYEAR=1990
DGENRE=Rock
TTITLE0=恋の列車はリバプール発
TTITLE1=セクシー・キャット
TTITLE2=トラベリン・バス
TTITLE3=キャロル
TTITLE4=最後の約束
TTITLE5=奴はデビル
TTITLE6=気ままなロックン・ローラー
TTITLE7=サブウェイ特急
TTITLE8=雨のハイウェイ
TTITLE9=アイ・ラブ・ユー,OK
EXTD=YEAR: 1990
EXTT0=
EXTT1=
EXTT2=
EXTT3=
EXTT4=
EXTT5=
EXTT6=
EXTT7=
EXTT8=
EXTT9=
PLAYORDER=
